<?xml version="1.0" encoding="UTF-8"?>
<svg width="256px" height="256px" viewBox="0 0 256 256" version="1.1" xmlns="http://www.w3.org/2000/svg" xmlns:xlink="http://www.w3.org/1999/xlink" preserveAspectRatio="xMidYMid">
    <g>
        <path d="M252.171853,158.485938 C234.028892,225.175679 165.343085,265.341486 98.6533437,247.198525 C31.9636023,229.055564 -8.20220947,160.369757 9.94075153,93.6800154 C28.0837125,26.990274 96.7695197,-13.1755333 163.459261,5.01742789 C230.149002,23.1604034 270.314809,91.8461962 252.171853,158.485938" fill="#F7931A"/>
        <path d="M186.049212,129.194235 C188.260791,109.911625 173.566591,100.227315 153.247922,93.5882831 L160.280648,64.0552735 L142.101872,59.5330845 L135.271145,88.3857425 C130.677849,87.2130778 125.975551,86.1223673 121.293253,85.0391705 L128.169679,56.0053212 L109.999247,51.4831322 L102.966521,81.0086281 C99.1561548,80.1306695 95.4282723,79.2602245 91.8303365,78.3372559 L91.8528502,78.2747285 L66.5452012,71.9485543 L61.7104445,91.2243492 C61.7104445,91.2243492 75.0360803,94.2916058 74.7864534,94.4166331 C82.5947309,96.2600092 83.9721297,101.527916 83.7075028,105.712781 L75.7800654,138.877739 C76.2502886,138.99001 76.8355392,139.152619 77.4732898,139.402893 C76.9505529,139.277622 76.3953023,139.139851 75.8250791,139.002081 L64.7673772,185.098555 C63.8294148,187.456831 61.4261462,191.09152 56.0782701,189.828852 C56.2407837,190.003961 43.0277709,186.673465 43.0277709,186.673465 L33.8933158,207.38272 L57.8183159,213.385185 C62.0684544,214.476896 66.2285655,215.61814 70.3211629,216.697351 L63.2209234,246.561858 L81.3821855,251.084047 L88.4149111,221.551037 C93.1847261,222.874172 97.8169958,224.109839 102.337164,225.270003 L95.3269521,254.640394 L113.505728,259.162583 L120.605968,229.373413 C148.503709,234.658277 169.859412,232.774572 179.668089,207.346219 C187.547639,186.914739 180.94764,175.544712 166.803,168.217563 C177.238306,165.819626 185.09186,158.934076 186.049212,129.194235 L186.049212,129.194235 Z M150.595617,195.910834 C145.062956,216.343314 112.685187,206.009139 100.997368,203.11274 L110.297873,163.501332 C121.985692,166.410231 156.390787,174.508627 150.595617,195.910834 Z M156.128413,128.981571 C151.034889,147.638491 124.002082,138.824738 114.228474,136.397801 L122.720107,100.223815 C132.493715,102.650752 161.459447,109.449788 156.128413,128.981571 L156.128413,128.981571 Z" fill="#FFFFFF"/>
    </g>
</svg>
